<?xml version="1.0" encoding="utf-8"?>
<!-- Generator: Adobe Illustrator 23.0.3, SVG Export Plug-In . SVG Version: 6.00 Build 0)  -->
<svg version="1.1" id="Layer_1" xmlns="http://www.w3.org/2000/svg" xmlns:xlink="http://www.w3.org/1999/xlink" x="0px" y="0px"
	 viewBox="0 0 3959 1342.3" style="enable-background:new 0 0 3959 1342.3;" xml:space="preserve">
<style type="text/css">
	.st0{fill:#FFFFFF;stroke:#000000;stroke-width:10;stroke-miterlimit:10;}
	.st1{fill:#FF0000;stroke:#000000;stroke-width:10;stroke-miterlimit:10;}
	.st2{fill:none;stroke:#000000;stroke-width:10;stroke-miterlimit:10;}
	.st3{fill:#FE0130;}
</style>
<path class="st0" d="M553.3,541c1-1.5,2.6-2,4-2.7c20-10.8,40.2-21,60.5-31c15.5-7.6,30.8-15.6,46.2-23.3c3.7-1.9,7.5-3.5,11.2-5.3
	c2.7-1.3,5.2-1.1,7.8,0.1c4.8,2.2,9.4,4.8,13.9,7.5c42.1,25.1,84.4,50,126.8,74.6c51.3,29.8,102.3,59.9,153.7,89.4
	c82,47.1,163.4,95.3,245.2,142.8c28.3,16.5,56.7,32.8,85.1,49.2c1.1,0.6,2.9,1,2.9,2.1c0.1,1.6-1.9,1.8-3.1,2.5
	c-31.8,17.8-63.6,35.6-95.3,53.4c-4.3,2.4-8.6,4.9-12.8,7.5c-3.6,2.3-7.4,2.7-11.5,1.8c-13.7-3-27.5-6-41.2-8.9
	c-14.5-3-29.1-5.9-43.7-8.8c-5-1-9.9-0.3-14.4,2.1c-2.8,1.5-5.4,3.4-7.9,5.4c-2.9,2.3-4.1,5.2-3.6,8.8c0.4,2.7,0.9,5.4,1.3,8
	c2,12.6,0.5,24.8-3.6,36.9c-2.8,8.4-6.8,16.2-11.5,23.7c-10.9,17.6-24.8,32.5-40.7,45.6c-12.2,9.9-25.1,18.7-38.7,26.7
	c-1,0.6-2,1.1-2.8,1.8c-6.3,5-13.3,8.8-20.4,12.5c-15.9,8.2-31.8,16.3-48.3,23.3c-28,11.8-56.9,21.1-86.3,28.7
	c-18.6,4.8-37.3,9-56.2,12.3c-12.4,2.2-24.9,3.9-37.5,5.3c-17.2,1.9-34.4,3-51.7,3.9c-13.1,0.7-26.2,1.1-39.3,1.2
	c-11.3,0.1-22.7-0.5-34-1c-7.8-0.3-15.7-0.9-23.5-1.5c-9.2-0.7-18.5-1.6-27.7-2.6c-8.1-0.9-16.2-1.9-24.3-3
	c-13.5-1.7-26.8-4.1-40.2-6.7c-24.8-4.9-49.2-11-73.5-18c-31.8-9.2-62.6-21.2-92.5-35.3c-15.7-7.4-31.5-14.8-46.5-23.7
	c-26.6-15.7-52.1-33-75.8-53c-7.3-6.2-14.3-12.8-20.9-19.8c-10.4-11.3-20.9-22.6-29.8-35.1c-12.5-17.7-22.7-36.7-29.3-57.4
	c-4.6-14.4-6.6-29.3-5.9-44.5c0.9-18.5,5.7-35.9,13.6-52.6c9.1-19.3,21.3-36.4,36.6-51.3c17.6-17.1,36.5-32.6,57.2-45.9
	c10.6-6.9,21.9-12.6,33.1-18.4c23-11.8,46.5-22.6,70.9-31.5c22.5-8.2,45.6-14.5,69-19.7c16.4-3.6,33-6,49.7-7.8
	c8.3-0.9,16.5-1.8,24.8-2.9c6.2-0.8,12.4-0.9,18.7-0.9c14.1,0,28.2,0.2,42.2,0.3c7.4,0.1,14.7,0.5,22,1.5c4.4,0.6,8.6-0.1,12.7-1.8
	c3.8-1.7,7.3-4,10.6-6.6c2.4-1.8,3.2-4.3,2.8-7.2c-0.3-2.1-1.2-4-2.3-5.8c-3.7-6.2-7.4-12.4-11-18.6c-4.3-7.5-8.6-15-12.9-22.5
	C554.5,543.5,554,542.2,553.3,541z"/>
<path class="st0" d="M553.3,442.8c1-1.5,2.6-2,4-2.7c20-10.8,40.2-21,60.5-31c15.5-7.6,30.8-15.6,46.2-23.3
	c3.7-1.9,7.5-3.5,11.2-5.3c2.7-1.3,5.2-1.1,7.8,0.1c4.8,2.2,9.4,4.8,13.9,7.5c42.1,25.1,84.4,50,126.8,74.6
	c51.3,29.8,102.3,59.9,153.7,89.4c82,47.1,163.4,95.3,245.2,142.8c28.3,16.5,56.7,32.8,85.1,49.2c1.1,0.6,2.9,1,2.9,2.1
	c0.1,1.6-1.9,1.8-3.1,2.5c-31.8,17.8-63.6,35.6-95.3,53.4c-4.3,2.4-8.6,4.9-12.8,7.5c-3.6,2.3-7.4,2.7-11.5,1.8
	c-13.7-3-27.5-6-41.2-8.9c-14.5-3-29.1-5.9-43.7-8.8c-5-1-9.9-0.3-14.4,2.1c-2.8,1.5-5.4,3.4-7.9,5.4c-2.9,2.3-4.1,5.2-3.6,8.8
	c0.4,2.7,0.9,5.4,1.3,8c2,12.6,0.5,24.8-3.6,36.9c-2.8,8.4-6.8,16.2-11.5,23.7c-10.9,17.6-24.8,32.5-40.7,45.6
	c-12.2,9.9-25.1,18.7-38.7,26.7c-1,0.6-2,1.1-2.8,1.8c-6.3,5-13.3,8.8-20.4,12.5c-15.9,8.2-31.8,16.3-48.3,23.3
	c-28,11.8-56.9,21.1-86.3,28.7c-18.6,4.8-37.3,9-56.2,12.3c-12.4,2.2-24.9,3.9-37.5,5.3c-17.2,1.9-34.4,3-51.7,3.9
	c-13.1,0.7-26.2,1.1-39.3,1.2c-11.3,0.1-22.7-0.5-34-1c-7.8-0.3-15.7-0.9-23.5-1.5c-9.2-0.7-18.5-1.6-27.7-2.6
	c-8.1-0.9-16.2-1.9-24.3-3c-13.5-1.7-26.8-4.1-40.2-6.7c-24.8-4.9-49.2-11-73.5-18c-31.8-9.2-62.6-21.2-92.5-35.3
	c-15.7-7.4-31.5-14.8-46.5-23.7c-26.6-15.7-52.1-33-75.8-53c-7.3-6.2-14.3-12.8-20.9-19.8c-10.4-11.3-20.9-22.6-29.8-35.1
	c-12.5-17.7-22.7-36.7-29.3-57.4c-4.6-14.4-6.6-29.3-5.9-44.5c0.9-18.5,5.7-35.9,13.6-52.6c9.1-19.3,21.3-36.4,36.6-51.3
	c17.6-17.1,36.5-32.6,57.2-45.9c10.6-6.9,21.9-12.6,33.1-18.4c23-11.8,46.5-22.6,70.9-31.5c22.5-8.2,45.6-14.5,69-19.7
	c16.4-3.6,33-6,49.7-7.8c8.3-0.9,16.5-1.8,24.8-2.9c6.2-0.8,12.4-0.9,18.7-0.9c14.1,0,28.2,0.2,42.2,0.3c7.4,0.1,14.7,0.5,22,1.5
	c4.4,0.6,8.6-0.1,12.7-1.8c3.8-1.7,7.3-4,10.6-6.6c2.4-1.8,3.2-4.3,2.8-7.2c-0.3-2.1-1.2-4-2.3-5.8c-3.7-6.2-7.4-12.4-11-18.6
	c-4.3-7.5-8.6-15-12.9-22.5C554.5,445.3,554,444,553.3,442.8z"/>
<path class="st0" d="M553.3,346.7c1-1.5,2.6-2,4-2.7c20-10.8,40.2-21,60.5-31c15.5-7.6,30.8-15.6,46.2-23.3
	c3.7-1.9,7.5-3.5,11.2-5.3c2.7-1.3,5.2-1.1,7.8,0.1c4.8,2.2,9.4,4.8,13.9,7.5c42.1,25.1,84.4,50,126.8,74.6
	c51.3,29.8,102.3,59.9,153.7,89.4c82,47.1,163.4,95.3,245.2,142.8c28.3,16.5,56.7,32.8,85.1,49.2c1.1,0.6,2.9,1,2.9,2.1
	c0.1,1.6-1.9,1.8-3.1,2.5c-31.8,17.8-63.6,35.6-95.3,53.4c-4.3,2.4-8.6,4.9-12.8,7.5c-3.6,2.3-7.4,2.7-11.5,1.8
	c-13.7-3-27.5-6-41.2-8.9c-14.5-3-29.1-5.9-43.7-8.8c-5-1-9.9-0.3-14.4,2.1c-2.8,1.5-5.4,3.4-7.9,5.4c-2.9,2.3-4.1,5.2-3.6,8.8
	c0.4,2.7,0.9,5.4,1.3,8c2,12.6,0.5,24.8-3.6,36.9c-2.8,8.4-6.8,16.2-11.5,23.7c-10.9,17.6-24.8,32.5-40.7,45.6
	c-12.2,9.9-25.1,18.7-38.7,26.7c-1,0.6-2,1.1-2.8,1.8c-6.3,5-13.3,8.8-20.4,12.5c-15.9,8.2-31.8,16.3-48.3,23.3
	c-28,11.8-56.9,21.1-86.3,28.7c-18.6,4.8-37.3,9-56.2,12.3c-12.4,2.2-24.9,3.9-37.5,5.3c-17.2,1.9-34.4,3-51.7,3.9
	c-13.1,0.7-26.2,1.1-39.3,1.2c-11.3,0.1-22.7-0.5-34-1c-7.8-0.3-15.7-0.9-23.5-1.5c-9.2-0.7-18.5-1.6-27.7-2.6
	c-8.1-0.9-16.2-1.9-24.3-3c-13.5-1.7-26.8-4.1-40.2-6.7c-24.8-4.9-49.2-11-73.5-18c-31.8-9.2-62.6-21.2-92.5-35.3
	c-15.7-7.4-31.5-14.8-46.5-23.7c-26.6-15.7-52.1-33-75.8-53c-7.3-6.2-14.3-12.8-20.9-19.8c-10.4-11.3-20.9-22.6-29.8-35.1
	c-12.5-17.7-22.7-36.7-29.3-57.4c-4.6-14.4-6.6-29.3-5.9-44.5c0.9-18.5,5.7-35.9,13.6-52.6c9.1-19.3,21.3-36.4,36.6-51.3
	c17.6-17.1,36.5-32.6,57.2-45.9c10.6-6.9,21.9-12.6,33.1-18.4c23-11.8,46.5-22.6,70.9-31.5c22.5-8.2,45.6-14.5,69-19.7
	c16.4-3.6,33-6,49.7-7.8c8.3-0.9,16.5-1.8,24.8-2.9c6.2-0.8,12.4-0.9,18.7-0.9c14.1,0,28.2,0.2,42.2,0.3c7.4,0.1,14.7,0.5,22,1.5
	c4.4,0.6,8.6-0.1,12.7-1.8c3.8-1.7,7.3-4,10.6-6.6c2.4-1.8,3.2-4.3,2.8-7.2c-0.3-2.1-1.2-4-2.3-5.8c-3.7-6.2-7.4-12.4-11-18.6
	c-4.3-7.5-8.6-15-12.9-22.5C554.5,349.3,554,348,553.3,346.7z"/>
<path class="st1" d="M553.3,238.1c1-1.5,2.6-2,4-2.7c20-10.8,40.2-21,60.5-31c15.5-7.6,30.8-15.6,46.2-23.3
	c3.7-1.9,7.5-3.5,11.2-5.3c2.7-1.3,5.2-1.1,7.8,0.1c4.8,2.2,9.4,4.8,13.9,7.5c42.1,25.1,84.4,50,126.8,74.6
	c51.3,29.8,102.3,59.9,153.7,89.4c82,47.1,163.4,95.3,245.2,142.8c28.3,16.5,56.7,32.8,85.1,49.2c1.1,0.6,2.9,1,2.9,2.1
	c0.1,1.6-1.9,1.8-3.1,2.5c-31.8,17.8-63.6,35.6-95.3,53.4c-4.3,2.4-8.6,4.9-12.8,7.5c-3.6,2.3-7.4,2.7-11.5,1.8
	c-13.7-3-27.5-6-41.2-8.9c-14.5-3-29.1-5.9-43.7-8.8c-5-1-9.9-0.3-14.4,2.1c-2.8,1.5-5.4,3.4-7.9,5.4c-2.9,2.3-4.1,5.2-3.6,8.8
	c0.4,2.7,0.9,5.4,1.3,8c2,12.6,0.5,24.8-3.6,36.9c-2.8,8.4-6.8,16.2-11.5,23.7c-10.9,17.6-24.8,32.5-40.7,45.6
	c-12.2,9.9-25.1,18.7-38.7,26.7c-1,0.6-2,1.1-2.8,1.8c-6.3,5-13.3,8.8-20.4,12.5c-15.9,8.2-31.8,16.3-48.3,23.3
	c-28,11.8-56.9,21.1-86.3,28.7c-18.6,4.8-37.3,9-56.2,12.3c-12.4,2.2-24.9,3.9-37.5,5.3c-17.2,1.9-34.4,3-51.7,3.9
	c-13.1,0.7-26.2,1.1-39.3,1.2c-11.3,0.1-22.7-0.5-34-1c-7.8-0.3-15.7-0.9-23.5-1.5c-9.2-0.7-18.5-1.6-27.7-2.6
	c-8.1-0.9-16.2-1.9-24.3-3c-13.5-1.7-26.8-4.1-40.2-6.7c-24.8-4.9-49.2-11-73.5-18c-31.8-9.2-62.6-21.2-92.5-35.3
	c-15.7-7.4-31.5-14.8-46.5-23.7c-26.6-15.7-52.1-33-75.8-53c-7.3-6.2-14.3-12.8-20.9-19.8c-10.4-11.3-20.9-22.6-29.8-35.1
	c-12.5-17.7-22.7-36.7-29.3-57.4c-4.6-14.4-6.6-29.3-5.9-44.5c0.9-18.5,5.7-35.9,13.6-52.6c9.1-19.3,21.3-36.4,36.6-51.3
	c17.6-17.1,36.5-32.6,57.2-45.9c10.6-6.9,21.9-12.6,33.1-18.4c23-11.8,46.5-22.6,70.9-31.5c22.5-8.2,45.6-14.5,69-19.7
	c16.4-3.6,33-6,49.7-7.8c8.3-0.9,16.5-1.8,24.8-2.9c6.2-0.8,12.4-0.9,18.7-0.9c14.1,0,28.2,0.2,42.2,0.3c7.4,0.1,14.7,0.5,22,1.5
	c4.4,0.6,8.6-0.1,12.7-1.8c3.8-1.7,7.3-4,10.6-6.6c2.4-1.8,3.2-4.3,2.8-7.2c-0.3-2.1-1.2-4-2.3-5.8c-3.7-6.2-7.4-12.4-11-18.6
	c-4.3-7.5-8.6-15-12.9-22.5C554.5,240.6,554,239.3,553.3,238.1z"/>
<path class="st0" d="M647.6,670.3c-14.1-0.4-29.5-1.2-44.9-3.2c-21.8-2.9-43-7.8-63.9-14.6c-5.2-1.7-10.2-3.6-15.1-6.1
	c-2.8-1.4-5.9-2.4-8.8-3.6c-18.4-7.8-35.1-18.2-50.8-30.6c-7-5.6-13.5-11.7-19.2-18.7c-2.7-3.4-5.6-6.5-8.2-10
	c-1.9-2.6-3.6-5.3-5-8.2c-4.8-10-8-20.5-9-31.6c-0.6-6.5,0.7-12.7,2.3-19c3.1-12.4,9.4-23,17.3-32.8c7.6-9.4,16.7-17.2,26.6-24
	c18.6-13,39-22.4,60.5-29.6c13.7-4.5,27.7-7.7,41.8-10.5c6.4-1.3,13-1.8,19.4-2.8c8.4-1.3,16.8-1.8,25.3-2.6
	c1.9-0.2,3.8-0.2,5.8-0.2c12.3,0,24.6,0,37,0.1c3.5,0,7,0.4,10.5,0.7c7.5,0.8,14.9,1.7,22.4,2.6c12.2,1.5,24.2,4.2,36.2,7
	c19,4.5,37.4,10.9,55,19.3c19.2,9.1,36.8,20.6,52.2,35.3c12.6,12.1,21.5,26.5,25.8,43.5c3.1,12.5,2.9,25-1.1,37.4
	c-2.4,7.5-5.2,14.7-9.5,21.4c-1.1,1.7-2.3,3.5-3.6,5.1c-1.6,2-3.4,3.7-4.3,6.2c-0.4,1.1-1.4,2.1-2.4,2.9c-3,2.2-5.5,4.8-8.2,7.4
	c-3.7,3.6-7.6,6.8-11.7,9.9c-16.7,12.7-35.1,22-54.8,29c-8,2.8-15.8,6-24,8.2c-14.8,4-29.8,7-45.1,8.8
	C680.1,668.9,662.5,670.3,647.6,670.3z"/>
<path class="st2" d="M842.2,600.8c-15.4-14.7-40.3-31.1-59.4-40.2c-17.6-8.4-36-14.8-55-19.3c-12-2.9-24-5.6-36.2-7
	c-7.5-0.9-14.9-1.8-22.4-2.6c-3.5-0.4-7-0.7-10.5-0.7c-12.3-0.1-24.6-0.1-37-0.1c-1.9,0-3.8,0.1-5.8,0.2c-8.4,0.8-16.9,1.3-25.3,2.6
	c-6.5,1-13,1.5-19.4,2.8c-14.1,2.8-28.1,6-41.8,10.5c-21.5,7.1-41.8,16.6-60.5,29.6c-9.9,6.9-15,9.9-22.6,19.3"/>
<g>
	<path class="st3" d="M2606.8,422.7c-0.3-6.6-1.4-7.7-8.1-8.2c-1.2-0.1-2.4,0-3.6,0c-31.6,0-63.3,0-94.9,0c-1.5,0-3.1-0.1-4.6,0.1
		c-5.9,0.5-6.8,1.4-7.1,7.2c-0.1,2.1,0,4.3,0,6.4c0,42.9,0.1,85.8-0.1,128.6c0,4.3,2.4,10.3-2.8,12.3c-4.7,1.9-8-3.2-11.4-6.1
		c-14.6-12.5-31.1-21.1-50.1-24.5c-34.7-6.3-68.4-2.1-101.1,10.4c-46.2,17.6-76.6,51.6-95.6,96.2c-20.5,48-19.7,97-4,146.1
		c14.7,46.2,45.1,78.5,89.6,97.3c22.5,9.5,45.9,15.7,70.3,17.9c34.2,3.1,65.8-4,94.6-22.9c8.9-5.9,17-12.8,24.8-20
		c4.6-4.2,6.9-3.8,10.1,1.4c2.5,4.1,4.6,8.6,6.9,12.8c10.3,18.8,5.6,17.2,29.1,17.3c15.8,0,31.6,0.1,47.4,0.3
		c8.4,0.1,10.3-1.6,10.5-9.8c0.1-2.1,0-4.3,0-6.4c0-74.8,0-149.6,0-224.5c0-75.1,0-150.2,0-225.4
		C2606.9,427,2606.9,424.9,2606.8,422.7z M2438.1,793.8c-9.6,3.3-19.5,4.5-29.5,4.9c-34.1-0.1-62.5-18.1-74.3-47.6
		c-16.2-40.3,0.2-102.1,67.3-108.4c30.3-2.8,54.5,8.5,73.5,31.9C2504.3,710.8,2492.5,775.1,2438.1,793.8z"/>
	<path class="st3" d="M1949.9,546.2c-18.8-0.2-37.7-0.2-56.5-0.4c-7.2-0.1-12.1,2.6-15,9.5c-2.5,5.8-5.7,11.4-8.8,17
		c-6,10.6-7.3,10.9-15.5,2.4c-15.6-16.1-34.5-26.6-56-32.5c-27.7-7.6-55.8-8.1-84-3.8c-45,7-82.4,28-109.1,64.8
		c-44,60.4-52.3,126.9-24.7,196c20.4,51,58.8,84.8,112.3,99.8c28.2,7.9,57,7.7,85.9,3.8c20.5-2.8,39.6-9,56.7-20.9
		c7.5-5.2,14.1-11.5,20.6-18c5-5,6.7-4.8,10.3,1.3c3.9,6.5,7.7,13.1,10.7,20.1c3.3,7.5,9.1,10.5,16.7,10c16.4-0.9,32.8-0.1,49.2-0.4
		c2.7,0,5.5,0.1,8.2,0c8.4-0.2,9.2-1.1,9.4-9.6c0-1.8,0-3.6,0-5.5c0-52.9,0-105.8,0-158.7c0-17.9,0-35.9,0-53.8
		c0-36.8,0-73.6,0-110.4C1960,546.9,1959.5,546.3,1949.9,546.2z M1792.1,792.4c-11.3,4.1-22.9,5.9-34.8,6.2
		c-28.1-0.9-50.4-12-64.5-37.1c-25.6-45.6-5.9-99.4,42.3-115.5c38.6-12.9,99.7,5.8,108.2,65.4
		C1847.4,740.6,1832.9,777.7,1792.1,792.4z"/>
	<path class="st3" d="M3657.7,554.4c-53.8-24.9-109.2-25.7-164.8-5.2c-42.8,15.8-74.6,43.9-93.5,85.6
		c-19.4,42.7-22.7,87.3-13.5,132.9c6.7,33.4,22.4,62.1,47.3,85.6c37.5,35.3,83.5,49.4,133.7,52.2c24.4,1.4,48.6-0.5,72.8-3.8
		c24.8-3.4,48.7-10.2,71.2-21.5c5.7-2.8,7.9-6.5,7.8-12.9c-0.3-21.9-0.1-43.8-0.1-65.7c0-10-2.2-11.6-12.1-9.2
		c-0.9,0.2-1.7,0.5-2.6,0.8c-37.3,14.2-76,18.2-115.5,16.9c-19.5-0.6-38.7-3.2-56.5-12.2c-18.2-9.2-30.9-23-37-44
		c4.6,0,7.9,0,11.2,0c69.7,0,139.3,0,209,0c2.4,0,4.9-0.1,7.3,0c5.5,0.1,9.4-2.1,11-7.6c0.6-2,1.5-4,2.1-6c7-23.3,8.9-47.1,5.7-71.2
		C3734.1,615.8,3706.3,576.9,3657.7,554.4z M3495.1,680.4c5.5-26,19.8-44.1,44.8-53.3c25.1-9.3,49.5-7,73,5.4c19,10,27.4,26.6,29,48
		C3593.2,680.4,3544.7,680.4,3495.1,680.4z"/>
	<path class="st3" d="M3409.9,556c3.9-7.9,2.6-10.1-6.6-10.1c-5.5,0-10.9,0.3-16.4,0.3c-27.1-0.1-54.1,0-81.2-0.4
		c-9.4-0.1-15.7,3.8-19.3,12.3c-1.1,2.5-2.2,5-3.3,7.5c-20.5,49-43.9,96.8-63.8,146.1c-1.2,2.9-2.7,5.6-6.3,5.7
		c-4.1,0.1-6-2.7-7.1-6c-5.6-18-14.4-34.8-21.7-52.1c-14.1-33.3-28.5-66.4-42.5-99.7c-4-9.6-9.9-14.4-20.8-13.9
		c-15.8,0.6-31.6,0.2-47.4,0.2c0,0.1,0,0.2,0,0.3c-4.6,0-9.1,0-13.7,0c-12.5-0.1-24.9-0.1-37.4-0.2c-7.9,0-9.2,2.1-5.9,9.3
		c1.1,2.5,2.6,4.8,3.8,7.2c28.6,58.4,57.2,116.8,85.8,175.1c23.5,48,47,96.1,70.4,144.1c5.9,12,8.7,13.7,21.9,13.2
		c7.9-0.3,15.9-0.8,23.7-0.1c23.4,2,23-2.4,31.1-18.8c42.9-87.6,85.6-175.2,128.5-262.8C3391,594.1,3400.5,575.1,3409.9,556z"/>
	<path class="st3" d="M2218.2,638.6c-0.1-30.1-0.1-60.2-0.2-90.3c0-2.1,0-4.3-0.1-6.4c-0.1-4.5-2.5-6.5-6.9-6.7
		c-6.1-0.3-12.1,0.7-18.2,1.4c-26.4,2.9-49.9,12.6-69.8,30.4c-3.2,2.8-6,6.1-9.3,8.7c-3.8,3.1-6.6,2.5-8.6-2.1
		c-2.6-5.8-4.6-11.9-6.7-17.9c-2.8-8-4.8-9.8-13.1-9.9c-23.1-0.1-46.2-0.1-69.3,0.2c-14.6,0.2-14.6,0.5-14.6,14.8
		c0,53.2,0,106.5,0,159.7c0,52.9,0,105.9,0,158.8c0,2.4-0.1,4.9,0,7.3c0.5,6.8,1.5,8,8.2,8c33.8,0.1,67.5,0.1,101.3,0
		c6.7,0,7.9-1.4,8.4-7.9c0.2-2.4,0-4.9,0-7.3c0-47.8,0-95.5,0-143.3c0-8.8,0.6-17.6,2.3-26.3c5.4-27.4,20.9-46,47.8-54.5
		c12-3.8,24.3-5.3,36.8-5.3C2216.5,650.2,2218.3,648.3,2218.2,638.6z"/>
	<path class="st3" d="M2858.2,535.4c-5.5,0-10.9,0.7-16.3,1.2c-29.1,3-54.4,14.4-75.3,35c-1.3,1.3-2.5,2.7-3.9,3.8
		c-4.3,3.4-6.9,3-9.2-2c-2.6-5.5-4.7-11.2-6.3-17c-2.4-8.5-4.9-10.4-13.6-10.4c-23.4-0.1-46.8-0.1-70.2,0.2
		c-13.1,0.2-13.1,0.4-13.1,13.5c0,53.5,0,107.1,0,160.6c0,54.7,0,109.5,0,164.2c0,10,0.4,10.4,10.1,10.4c27.1,0,54.1,0,81.2,0
		c6.7,0,13.4-0.1,20.1,0c4.2,0.1,6.2-1.9,6.2-6c0-2.4,0.1-4.9,0.1-7.3c0-48.1,0.1-96.1-0.1-144.2c0-8.5,0.5-17,2-25.4
		c5.1-28.9,21.1-48.4,49.7-56.9c11.2-3.3,22.6-4.3,34.2-4.9c12.7-0.7,12.7-0.6,12.7-12.8c0-21.3,0-42.6,0-63.9
		c0-10,0.1-20.1-0.1-30.1C2866.2,536.7,2864.8,535.3,2858.2,535.4z"/>
	<path class="st3" d="M2995,546.2c-31.6-0.2-63.3-0.2-94.9-0.3c-14.5,0-14.5,0-14.5,14.5c0,106.2,0,212.3,0,318.5
		c0,2.1-0.1,4.3,0,6.4c0.4,8.8,1,9.4,9.5,9.4c34.1,0.1,68.1,0.1,102.2,0c8.8,0,9.3-0.7,9.6-9.3c0.1-2.1,0-4.3,0-6.4
		c0-52.6,0-105.3,0-157.9c0-54.2,0-108.3,0-162.5C3006.9,546.5,3006.8,546.3,2995,546.2z"/>
	<path class="st3" d="M2947.2,367.9c-37.2,0.5-66.5,30.1-66.3,67c0.2,35.2,30.7,65,66.6,65.1c36.1,0,67.1-30.9,67-66.8
		C3014.3,397.5,2983.4,367.4,2947.2,367.9z"/>
</g>
</svg>
